<svg width="24" height="24" viewBox="0 0 24 24" fill="none" xmlns="http://www.w3.org/2000/svg">
<path d="M22.4232 9.118C22.3294 8.82974 22.1524 8.57568 21.9145 8.38783C21.6766 8.19998 21.3885 8.08673 21.0863 8.06237L15.5551 7.61612L13.4194 2.45143C13.3039 2.17001 13.1074 1.92929 12.8547 1.75987C12.6021 1.59046 12.3047 1.5 12.0005 1.5C11.6963 1.5 11.399 1.59046 11.1463 1.75987C10.8937 1.92929 10.6971 2.17001 10.5816 2.45143L8.44788 7.61518L2.91381 8.06237C2.61117 8.08797 2.3228 8.20231 2.08485 8.39106C1.8469 8.57982 1.66994 8.8346 1.57615 9.12348C1.48236 9.41237 1.4759 9.7225 1.55759 10.015C1.63928 10.3076 1.80548 10.5695 2.03538 10.768L6.25413 14.4083L4.96881 19.8514C4.8979 20.147 4.91616 20.4569 5.02129 20.742C5.12642 21.0272 5.31371 21.2748 5.5595 21.4536C5.80528 21.6323 6.09853 21.7343 6.40221 21.7465C6.70589 21.7586 7.00637 21.6806 7.26569 21.5221L12.0001 18.6083L16.7373 21.5221C16.9965 21.6796 17.2967 21.757 17.5998 21.7444C17.903 21.7317 18.1956 21.6297 18.4409 21.451C18.6861 21.2724 18.8731 21.0252 18.9782 20.7406C19.0832 20.4559 19.1017 20.1466 19.0313 19.8514L17.7413 14.4074L21.9601 10.7671C22.1918 10.5689 22.3595 10.3064 22.442 10.0128C22.5244 9.71927 22.5179 9.40784 22.4232 9.118ZM20.9851 9.63081L16.4194 13.5683C16.3153 13.6581 16.2379 13.7747 16.1955 13.9055C16.1532 14.0362 16.1476 14.1761 16.1794 14.3099L17.5744 20.1974C17.578 20.2055 17.5784 20.2147 17.5754 20.223C17.5725 20.2314 17.5664 20.2383 17.5585 20.2424C17.5416 20.2555 17.5369 20.2527 17.5229 20.2424L12.3929 17.0877C12.2746 17.0155 12.1386 16.9776 12.0001 16.978V2.99987C12.0226 2.99987 12.0254 3.00737 12.0329 3.02424L14.3438 8.61174C14.3966 8.73946 14.4836 8.85012 14.5952 8.93152C14.7069 9.01291 14.8389 9.06187 14.9766 9.07299L20.9682 9.55675C20.9832 9.55675 20.9916 9.55675 21.0001 9.58393C21.0085 9.61112 21.0001 9.62143 20.9851 9.63081Z" fill="#F59E0B"/>
</svg>
