<svg width="28" height="28" viewBox="0 0 28 28" fill="none" xmlns="http://www.w3.org/2000/svg">
<path d="M24.2966 11.5775L15.5466 2.82748C15.1364 2.41739 14.5801 2.18701 14 2.18701C13.42 2.18701 12.8637 2.41739 12.4534 2.82748L3.70345 11.5775C3.49949 11.7802 3.33782 12.0214 3.22779 12.287C3.11777 12.5527 3.06159 12.8376 3.06251 13.1251V23.6251C3.06251 23.9732 3.20079 24.3071 3.44693 24.5532C3.69308 24.7994 4.02691 24.9376 4.37501 24.9376H23.625C23.9731 24.9376 24.3069 24.7994 24.5531 24.5532C24.7992 24.3071 24.9375 23.9732 24.9375 23.6251V13.1251C24.9384 12.8376 24.8823 12.5527 24.7722 12.287C24.6622 12.0214 24.5005 11.7802 24.2966 11.5775ZM22.3125 22.3126H5.68751V13.3056L14 4.99311L22.3125 13.3056V22.3126Z" fill="#4F46E5"/>
</svg>
