<svg width="24" height="24" viewBox="0 0 24 24" fill="none" xmlns="http://www.w3.org/2000/svg">
<path d="M12 5.625C11.1842 5.625 10.3866 5.86693 9.70827 6.32019C9.02992 6.77345 8.50121 7.41769 8.189 8.17143C7.87679 8.92518 7.7951 9.75458 7.95426 10.5547C8.11343 11.3549 8.50629 12.0899 9.08318 12.6668C9.66008 13.2437 10.3951 13.6366 11.1953 13.7957C11.9954 13.9549 12.8248 13.8732 13.5786 13.561C14.3323 13.2488 14.9766 12.7201 15.4298 12.0417C15.8831 11.3634 16.125 10.5658 16.125 9.75C16.1238 8.65636 15.6888 7.60787 14.9154 6.83455C14.1421 6.06124 13.0936 5.62624 12 5.625ZM12 11.625C11.6292 11.625 11.2666 11.515 10.9583 11.309C10.65 11.103 10.4096 10.8101 10.2677 10.4675C10.1258 10.1249 10.0887 9.74792 10.161 9.3842C10.2334 9.02049 10.412 8.6864 10.6742 8.42417C10.9364 8.16195 11.2705 7.98337 11.6342 7.91103C11.9979 7.83868 12.3749 7.87581 12.7175 8.01772C13.0601 8.15964 13.353 8.39996 13.559 8.70831C13.765 9.01665 13.875 9.37916 13.875 9.75C13.875 10.2473 13.6775 10.7242 13.3258 11.0758C12.9742 11.4275 12.4973 11.625 12 11.625ZM12 1.125C9.71327 1.12748 7.52091 2.03698 5.90394 3.65394C4.28698 5.27091 3.37748 7.46327 3.375 9.75C3.375 17.0025 11.0288 22.4437 11.355 22.6716C11.5441 22.8039 11.7692 22.8748 12 22.8748C12.2308 22.8748 12.4559 22.8039 12.645 22.6716C14.0946 21.6032 15.4209 20.3769 16.5994 19.0153C19.2328 15.9909 20.625 12.7847 20.625 9.75C20.6225 7.46327 19.713 5.27091 18.0961 3.65394C16.4791 2.03698 14.2867 1.12748 12 1.125ZM14.9344 17.5041C14.0405 18.5308 13.0586 19.4776 12 20.3334C10.9414 19.4776 9.9595 18.5308 9.06562 17.5041C7.5 15.6909 5.625 12.8728 5.625 9.75C5.625 8.05924 6.29665 6.43774 7.49219 5.24219C8.68774 4.04665 10.3092 3.375 12 3.375C13.6908 3.375 15.3123 4.04665 16.5078 5.24219C17.7034 6.43774 18.375 8.05924 18.375 9.75C18.375 12.8728 16.5 15.6909 14.9344 17.5041Z" fill="#4F46E5"/>
</svg>
