<svg width="24" height="24" viewBox="0 0 24 24" fill="none" xmlns="http://www.w3.org/2000/svg">
<path d="M21.9646 10.7671L17.7459 14.4074L19.0312 19.8515C19.1021 20.147 19.0838 20.4569 18.9787 20.7421C18.8736 21.0272 18.6863 21.2748 18.4405 21.4536C18.1947 21.6324 17.9015 21.7343 17.5978 21.7465C17.2941 21.7587 16.9936 21.6806 16.7343 21.5221L11.9999 18.6083L7.26275 21.5221C7.00347 21.6797 6.70335 21.757 6.4002 21.7444C6.09704 21.7318 5.8044 21.6297 5.55913 21.4511C5.31386 21.2725 5.12692 21.0253 5.02185 20.7406C4.91679 20.456 4.89829 20.1466 4.96869 19.8515L6.25869 14.4074L2.03994 10.7671C1.81053 10.5688 1.64462 10.3074 1.56293 10.0154C1.48123 9.72336 1.48737 9.41376 1.58058 9.12522C1.67379 8.83669 1.84994 8.58201 2.08703 8.39299C2.32412 8.20397 2.61164 8.08899 2.91369 8.06241L8.44494 7.61616L10.5787 2.45241C10.6942 2.17099 10.8908 1.93027 11.1434 1.76085C11.3961 1.59143 11.6934 1.50098 11.9976 1.50098C12.3018 1.50098 12.5991 1.59143 12.8518 1.76085C13.1044 1.93027 13.301 2.17099 13.4165 2.45241L15.5493 7.61616L21.0806 8.06241C21.3832 8.088 21.6716 8.20234 21.9095 8.3911C22.1475 8.57986 22.3244 8.83464 22.4182 9.12352C22.512 9.41241 22.5185 9.72254 22.4368 10.0151C22.3551 10.3076 22.1889 10.5695 21.959 10.768L21.9646 10.7671Z" fill="#F59E0B"/>
</svg>
