<svg width="24" height="24" viewBox="0 0 24 24" fill="none" xmlns="http://www.w3.org/2000/svg">
<path d="M22.4234 9.118C22.3297 8.82974 22.1527 8.57568 21.9148 8.38783C21.6769 8.19998 21.3887 8.08673 21.0866 8.06237L15.5553 7.61612L13.4197 2.45143C13.3042 2.17001 13.1076 1.92929 12.855 1.75987C12.6023 1.59046 12.305 1.5 12.0008 1.5C11.6966 1.5 11.3992 1.59046 11.1466 1.75987C10.8939 1.92929 10.6974 2.17001 10.5819 2.45143L8.44812 7.61518L2.91406 8.06237C2.61141 8.08797 2.32305 8.20231 2.0851 8.39106C1.84714 8.57982 1.67019 8.8346 1.5764 9.12348C1.4826 9.41237 1.47615 9.72251 1.55784 10.015C1.63953 10.3076 1.80573 10.5695 2.03562 10.768L6.25437 14.4083L4.96906 19.8514C4.89717 20.1471 4.91477 20.4576 5.01962 20.7432C5.12448 21.0289 5.31185 21.277 5.55796 21.456C5.80407 21.635 6.09781 21.7369 6.40191 21.7486C6.70601 21.7604 7.00674 21.6815 7.26593 21.5221L12.0003 18.6083L16.7375 21.5221C16.9968 21.6796 17.2969 21.757 17.6001 21.7444C17.9032 21.7317 18.1958 21.6297 18.4411 21.451C18.6864 21.2724 18.8733 21.0252 18.9784 20.7406C19.0835 20.4559 19.102 20.1466 19.0316 19.8514L17.7416 14.4074L21.9603 10.7671C22.1921 10.5689 22.3598 10.3064 22.4422 10.0128C22.5247 9.71927 22.5181 9.40784 22.4234 9.118ZM20.9853 9.63081L16.4197 13.5683C16.3156 13.6581 16.2381 13.7747 16.1958 13.9055C16.1535 14.0362 16.1479 14.1761 16.1797 14.3099L17.5747 20.1974C17.5783 20.2055 17.5787 20.2147 17.5757 20.223C17.5727 20.2314 17.5667 20.2383 17.5587 20.2424C17.5419 20.2555 17.5372 20.2527 17.5231 20.2424L12.3931 17.0877C12.275 17.015 12.139 16.9766 12.0003 16.9766C11.8616 16.9766 11.7256 17.015 11.6075 17.0877L6.47749 20.2442C6.46343 20.2527 6.45968 20.2555 6.44187 20.2442C6.43396 20.2402 6.42789 20.2333 6.42493 20.2249C6.42196 20.2166 6.42232 20.2074 6.42593 20.1992L7.82093 14.3117C7.85273 14.178 7.84715 14.0381 7.80483 13.9073C7.7625 13.7766 7.68505 13.6599 7.58093 13.5702L3.01531 9.63268C3.00406 9.62331 2.99374 9.61487 3.00312 9.58581C3.01249 9.55675 3.01999 9.5605 3.03406 9.55862L9.02656 9.07487C9.164 9.06308 9.29554 9.01361 9.40669 8.9319C9.51783 8.85019 9.6043 8.73941 9.65656 8.61175L11.9647 3.02331C11.9722 3.00737 11.975 2.99987 11.9975 2.99987C12.02 2.99987 12.0228 3.00737 12.0303 3.02331L14.3441 8.61175C14.3968 8.73946 14.4838 8.85012 14.5955 8.93152C14.7072 9.01291 14.8391 9.06187 14.9769 9.073L20.9694 9.55675C20.9834 9.55675 20.9919 9.55675 21.0003 9.58393C21.0087 9.61112 21.0003 9.62143 20.9853 9.63081Z" fill="#F59E0B"/>
</svg>
