<svg width="80" height="80" viewBox="0 0 80 80" fill="none" xmlns="http://www.w3.org/2000/svg">
<path d="M70 32.4999H67.3844C66.7562 25.6714 63.5995 19.3239 58.5334 14.7025C53.4673 10.081 46.8573 7.51904 40 7.51904C33.1427 7.51904 26.5327 10.081 21.4666 14.7025C16.4005 19.3239 13.2438 25.6714 12.6156 32.4999H10C9.33696 32.4999 8.70107 32.7633 8.23223 33.2321C7.76339 33.701 7.5 34.3369 7.5 34.9999C7.51098 40.9453 9.14716 46.7745 12.2316 51.8572C15.316 56.9399 19.7313 61.0827 25 63.8374V64.9999C25 66.326 25.5268 67.5978 26.4645 68.5354C27.4021 69.4731 28.6739 69.9999 30 69.9999H50C51.3261 69.9999 52.5979 69.4731 53.5355 68.5354C54.4732 67.5978 55 66.326 55 64.9999V63.8374C60.2687 61.0827 64.684 56.9399 67.7684 51.8572C70.8528 46.7745 72.489 40.9453 72.5 34.9999C72.5 34.3369 72.2366 33.701 71.7678 33.2321C71.2989 32.7633 70.663 32.4999 70 32.4999ZM62.3562 32.4999H46.2875C49.3185 27.9527 53.904 24.6671 59.1844 23.2593C60.9109 26.0676 61.9941 29.2233 62.3562 32.4999ZM54.2125 17.5718C54.7854 18.0405 55.3344 18.5353 55.8594 19.0562C49.2043 21.3973 43.7047 26.2087 40.5 32.4937H31.2812C32.8438 28.1138 35.7204 24.3231 39.5182 21.6394C43.316 18.9558 47.8497 17.5101 52.5 17.4999C53.0719 17.4999 53.6437 17.528 54.2125 17.5718ZM40 12.4999C42.0062 12.5012 44.0031 12.7714 45.9375 13.303C41.2264 14.4717 36.9065 16.8616 33.4134 20.2319C29.9202 23.6021 27.3772 27.8336 26.0406 32.4999H17.6437C18.2639 27.0026 20.8854 21.9258 25.0085 18.2372C29.1315 14.5487 34.4678 12.5065 40 12.4999ZM51.4563 59.9999C51.0202 60.2003 50.651 60.5219 50.3927 60.9264C50.1345 61.331 49.9982 61.8013 50 62.2812V64.9999H30V62.2812C30.0018 61.8013 29.8655 61.331 29.6073 60.9264C29.349 60.5219 28.9798 60.2003 28.5437 59.9999C24.1472 57.9768 20.3602 54.8328 17.5628 50.8835C14.7654 46.9343 13.056 42.3186 12.6063 37.4999H67.3844C66.9355 42.3176 65.2275 46.9326 62.4318 50.8818C59.6361 54.831 55.851 57.9755 51.4563 59.9999Z" fill="#4F46E5"/>
</svg>
