<svg width="80" height="80" viewBox="0 0 80 80" fill="none" xmlns="http://www.w3.org/2000/svg">
<path d="M72.5 65C72.5 65.663 72.2366 66.2989 71.7678 66.7678C71.2989 67.2366 70.663 67.5 70 67.5H10C9.33696 67.5 8.70107 67.2366 8.23223 66.7678C7.76339 66.2989 7.5 65.663 7.5 65V15C7.5 14.337 7.76339 13.7011 8.23223 13.2322C8.70107 12.7634 9.33696 12.5 10 12.5C10.663 12.5 11.2989 12.7634 11.7678 13.2322C12.2366 13.7011 12.5 14.337 12.5 15V44.4906L28.3531 30.625C28.7845 30.2474 29.3326 30.0295 29.9055 30.0079C30.4784 29.9862 31.0414 30.1622 31.5 30.5063L49.8781 44.2906L68.3531 28.125C68.5954 27.8852 68.8841 27.6975 69.2015 27.5734C69.519 27.4493 69.8584 27.3914 70.1991 27.4032C70.5397 27.4151 70.8743 27.4965 71.1824 27.6425C71.4904 27.7884 71.7653 27.9958 71.9902 28.2519C72.2152 28.508 72.3854 28.8074 72.4903 29.1317C72.5953 29.4559 72.6329 29.7983 72.6007 30.1376C72.5686 30.4769 72.4674 30.8061 72.3033 31.1049C72.1393 31.4036 71.9159 31.6657 71.6469 31.875L51.6469 49.375C51.2155 49.7526 50.6674 49.9705 50.0945 49.9921C49.5216 50.0138 48.9586 49.8378 48.5 49.4938L30.1219 35.7156L12.5 51.1344V62.5H70C70.663 62.5 71.2989 62.7634 71.7678 63.2322C72.2366 63.7011 72.5 64.337 72.5 65Z" fill="#4F46E5"/>
</svg>
