<svg width="80" height="80" viewBox="0 0 80 80" fill="none" xmlns="http://www.w3.org/2000/svg">
<path d="M40 25C37.0333 25 34.1332 25.8797 31.6664 27.5279C29.1997 29.1762 27.2771 31.5188 26.1418 34.2597C25.0065 37.0006 24.7094 40.0166 25.2882 42.9263C25.867 45.8361 27.2956 48.5088 29.3934 50.6066C31.4912 52.7044 34.1639 54.133 37.0736 54.7118C39.9833 55.2905 42.9993 54.9935 45.7402 53.8582C48.4811 52.7229 50.8238 50.8003 52.472 48.3335C54.1203 45.8668 55 42.9667 55 40C54.9958 36.023 53.4142 32.2101 50.602 29.3979C47.7899 26.5858 43.977 25.0041 40 25ZM40 50C38.0222 50 36.0888 49.4135 34.4443 48.3147C32.7998 47.2159 31.5181 45.6541 30.7612 43.8268C30.0043 41.9996 29.8063 39.9889 30.1921 38.0491C30.578 36.1093 31.5304 34.3274 32.9289 32.9289C34.3274 31.5304 36.1093 30.578 38.0491 30.1921C39.9889 29.8063 41.9996 30.0043 43.8268 30.7612C45.6541 31.5181 47.2159 32.7998 48.3147 34.4443C49.4135 36.0888 50 38.0222 50 40C50 42.6521 48.9464 45.1957 47.0711 47.071C45.1957 48.9464 42.6521 50 40 50ZM74.3562 33.5031C74.2866 33.1511 74.142 32.8181 73.9322 32.5269C73.7225 32.2358 73.4525 31.9932 73.1406 31.8156L63.8187 26.5031L63.7812 15.9969C63.7801 15.635 63.7004 15.2778 63.5478 14.9497C63.3951 14.6217 63.173 14.3307 62.8969 14.0969C59.5154 11.2365 55.6214 9.04456 51.4219 7.63748C51.0911 7.52554 50.7407 7.48412 50.393 7.51587C50.0453 7.54763 49.7081 7.65186 49.4031 7.82186L40 13.0781L30.5875 7.81248C30.2823 7.64153 29.9447 7.53651 29.5964 7.50421C29.2482 7.47191 28.897 7.51306 28.5656 7.62498C24.3692 9.04235 20.4796 11.2427 17.1031 14.1094C16.8274 14.3428 16.6055 14.6333 16.4529 14.9608C16.3002 15.2883 16.2203 15.6449 16.2187 16.0062L16.1719 26.5219L6.84998 31.8344C6.53811 32.0119 6.26812 32.2545 6.05836 32.5457C5.84861 32.8369 5.70399 33.1698 5.63436 33.5219C4.78122 37.809 4.78122 42.2222 5.63436 46.5094C5.70399 46.8614 5.84861 47.1943 6.05836 47.4855C6.26812 47.7767 6.53811 48.0193 6.84998 48.1969L16.1719 53.5094L16.2094 64.0156C16.2105 64.3774 16.2902 64.7347 16.4428 65.0628C16.5955 65.3908 16.8176 65.6818 17.0937 65.9156C20.4752 68.7759 24.3692 70.9679 28.5687 72.375C28.8994 72.4869 29.2499 72.5284 29.5976 72.4966C29.9453 72.4648 30.2825 72.3606 30.5875 72.1906L40 66.9219L49.4125 72.1875C49.785 72.395 50.2048 72.5027 50.6312 72.5C50.9043 72.4999 51.1755 72.4556 51.4344 72.3687C55.6303 70.9532 59.5198 68.7551 62.8969 65.8906C63.1726 65.6571 63.3944 65.3666 63.5471 65.0392C63.6998 64.7117 63.7797 64.355 63.7812 63.9937L63.8281 53.4781L73.15 48.1656C73.4619 47.9881 73.7318 47.7454 73.9416 47.4543C74.1514 47.1631 74.296 46.8302 74.3656 46.4781C75.214 42.1944 75.2108 37.7856 74.3562 33.5031ZM69.6687 44.4125L60.7406 49.4906C60.3494 49.713 60.0255 50.0369 59.8031 50.4281C59.6219 50.7406 59.4312 51.0719 59.2375 51.3844C58.9895 51.7784 58.8574 52.2344 58.8562 52.7L58.8094 62.7781C56.4096 64.6627 53.7361 66.1696 50.8812 67.2469L41.875 62.2281C41.5011 62.0212 41.0804 61.9136 40.6531 61.9156H40.5937C40.2156 61.9156 39.8344 61.9156 39.4562 61.9156C39.009 61.9044 38.5668 62.0123 38.175 62.2281L29.1625 67.2594C26.3016 66.1904 23.6207 64.6908 21.2125 62.8125L21.1781 52.75C21.1766 52.2834 21.0445 51.8266 20.7969 51.4312C20.6031 51.1187 20.4125 50.8062 20.2344 50.475C20.0135 50.0778 19.6896 49.7474 19.2969 49.5187L10.3594 44.4281C9.89686 41.5025 9.89686 38.5224 10.3594 35.5969L19.2719 30.5094C19.663 30.2869 19.9869 29.963 20.2094 29.5719C20.3906 29.2594 20.5812 28.9281 20.775 28.6156C21.023 28.2215 21.1551 27.7656 21.1562 27.3L21.2031 17.2219C23.6029 15.3373 26.2764 13.8304 29.1312 12.7531L38.125 17.7719C38.5164 17.9888 38.9589 18.0967 39.4062 18.0844C39.7844 18.0844 40.1656 18.0844 40.5437 18.0844C40.991 18.0955 41.4331 17.9877 41.825 17.7719L50.8375 12.7406C53.6984 13.8096 56.3793 15.3092 58.7875 17.1875L58.8219 27.25C58.8234 27.7165 58.9555 28.1733 59.2031 28.5687C59.3969 28.8812 59.5875 29.1937 59.7656 29.525C59.9865 29.9222 60.3103 30.2525 60.7031 30.4812L69.6406 35.5719C70.1093 38.4997 70.1145 41.483 69.6562 44.4125H69.6687Z" fill="#4F46E5"/>
</svg>
