<svg width="80" height="80" viewBox="0 0 80 80" fill="none" xmlns="http://www.w3.org/2000/svg">
<path d="M67.4345 36.9282C67.3398 36.5275 67.1477 36.1564 66.8751 35.8478C66.6025 35.5393 66.2579 35.3028 65.872 35.1594L47.8689 28.4063L52.4501 5.49067C52.5538 4.95824 52.4816 4.40651 52.2443 3.91874C52.0069 3.43097 51.6174 3.03363 51.1344 2.78668C50.6514 2.53973 50.1012 2.45656 49.5668 2.54973C49.0325 2.6429 48.5429 2.90735 48.172 3.30318L13.172 40.8032C12.8877 41.1027 12.6821 41.468 12.5734 41.8664C12.4648 42.2648 12.4565 42.6839 12.5494 43.0863C12.6422 43.4887 12.8333 43.8618 13.1055 44.1723C13.3778 44.4828 13.7227 44.721 14.1095 44.8657L32.1189 51.6188L27.5501 74.5094C27.4464 75.0419 27.5186 75.5936 27.756 76.0814C27.9933 76.5691 28.3828 76.9665 28.8658 77.2134C29.3488 77.4604 29.899 77.5435 30.4334 77.4504C30.9677 77.3572 31.4573 77.0927 31.8282 76.6969L66.8282 39.1969C67.1074 38.8973 67.3086 38.5338 67.4143 38.1382C67.52 37.7426 67.527 37.3271 67.4345 36.9282ZM34.1782 66.875L37.4501 50.5063C37.5672 49.9258 37.4744 49.3225 37.1883 48.804C36.9021 48.2855 36.4412 47.8854 35.8876 47.675L19.3751 41.4719L45.8189 13.1407L42.5501 29.5094C42.433 30.09 42.5258 30.6932 42.8119 31.2117C43.0981 31.7302 43.559 32.1303 44.1126 32.3407L60.6126 38.5282L34.1782 66.875Z" fill="#4F46E5"/>
</svg>
