<svg width="24" height="24" viewBox="0 0 24 24" fill="none" xmlns="http://www.w3.org/2000/svg">
<path d="M11.999 6.41797C12.1408 6.41797 12.2812 6.44571 12.4121 6.5C12.5106 6.54089 12.6026 6.59651 12.6846 6.66406L12.7627 6.73535L20.2627 14.2354C20.3631 14.3354 20.4427 14.4541 20.4971 14.585C20.5515 14.716 20.5801 14.8571 20.5801 14.999C20.5801 15.1409 20.5515 15.2811 20.4971 15.4121C20.4563 15.5104 20.4013 15.6017 20.334 15.6836L20.2627 15.7627C20.1625 15.8632 20.0431 15.9427 19.9121 15.9971C19.7811 16.0514 19.6408 16.0801 19.499 16.0801C19.3572 16.0801 19.2169 16.0514 19.0859 15.9971C18.9549 15.9427 18.8355 15.8632 18.7354 15.7627L12 9.02734L11.9668 9.06055L5.2627 15.7627C5.06015 15.9652 4.78544 16.0791 4.49902 16.0791C4.21261 16.0791 3.9379 15.9652 3.73535 15.7627C3.53284 15.5602 3.41899 15.2854 3.41895 14.999C3.41895 14.7126 3.53285 14.4379 3.73535 14.2354L11.2354 6.73535C11.3355 6.63484 11.4549 6.55442 11.5859 6.5C11.7169 6.44571 11.8573 6.41797 11.999 6.41797Z" fill="#475569" stroke="#475569" stroke-width="0.09375"/>
</svg>
