<svg width="24" height="24" viewBox="0 0 24 24" fill="none" xmlns="http://www.w3.org/2000/svg">
<path d="M20.2959 9.79586L12.7959 17.2959C12.6914 17.4007 12.5672 17.484 12.4304 17.5407C12.2937 17.5975 12.1471 17.6267 11.999 17.6267C11.851 17.6267 11.7043 17.5975 11.5676 17.5407C11.4309 17.484 11.3067 17.4007 11.2021 17.2959L3.70215 9.79586C3.4908 9.58451 3.37207 9.29787 3.37207 8.99898C3.37207 8.7001 3.4908 8.41345 3.70215 8.20211C3.91349 7.99076 4.20014 7.87203 4.49902 7.87203C4.79791 7.87203 5.08455 7.99076 5.2959 8.20211L12 14.9062L18.704 8.20117C18.9154 7.98983 19.202 7.87109 19.5009 7.87109C19.7998 7.87109 20.0864 7.98983 20.2978 8.20117C20.5091 8.41252 20.6278 8.69916 20.6278 8.99805C20.6278 9.29693 20.5091 9.58358 20.2978 9.79492L20.2959 9.79586Z" fill="#94A3B8"/>
</svg>
