<svg width="80" height="80" viewBox="0 0 80 80" fill="none" xmlns="http://www.w3.org/2000/svg">
<path d="M73.5938 67.7532C66.5438 64.3157 62.5001 56.947 62.5001 47.5032V42.1032C62.5027 41.1014 62.2032 40.1221 61.6407 39.2931C61.0782 38.4641 60.2788 37.824 59.3469 37.4564L51.5626 34.3751C50.9501 34.1301 50.4593 33.6531 50.1971 33.0478C49.9349 32.4426 49.9225 31.7582 50.1626 31.1439L56.8251 14.5814C57.2772 13.4943 57.5054 12.3272 57.4958 11.1499C57.4862 9.97254 57.2392 8.80927 56.7694 7.72969C56.2996 6.65012 55.6168 5.67645 54.7619 4.86699C53.9069 4.05754 52.8974 3.42895 51.7938 3.01886C49.6442 2.23125 47.2723 2.31297 45.182 3.24665C43.0917 4.18032 41.448 5.89235 40.6001 8.01886C40.5988 8.03133 40.5988 8.04389 40.6001 8.05636L34.0313 24.6876C33.787 25.3029 33.3086 25.7962 32.7011 26.0592C32.0936 26.3222 31.4066 26.3336 30.7907 26.0907L22.8469 22.8564C21.9311 22.4852 20.9253 22.3958 19.9583 22.5996C18.9913 22.8033 18.1071 23.291 17.4188 24.0001C10.8376 30.7657 7.50006 38.672 7.50006 47.5001C7.48277 56.5342 10.9765 65.2216 17.2438 71.7282C17.4786 71.9737 17.761 72.1688 18.0737 72.3015C18.3864 72.4342 18.7229 72.5018 19.0626 72.5001H72.5001C73.0651 72.4996 73.6133 72.3076 74.0553 71.9556C74.4973 71.6035 74.807 71.1121 74.9338 70.5614C75.0607 70.0108 74.9973 69.4334 74.7539 68.9235C74.5106 68.4135 74.1017 68.001 73.5938 67.7532ZM20.9813 27.5001L28.9219 30.7189C29.8385 31.0856 30.8185 31.2677 31.8056 31.2548C32.7928 31.2419 33.7677 31.0343 34.6744 30.6438C35.5811 30.2533 36.4018 29.6876 37.0894 28.9792C37.777 28.2708 38.318 27.4337 38.6813 26.5157L45.2438 9.95324C46.0438 8.04386 48.2032 7.05636 50.0657 7.76574C50.5405 7.94191 50.9748 8.21245 51.3422 8.56103C51.7096 8.90961 52.0026 9.329 52.2035 9.79392C52.4045 10.2588 52.5091 10.7596 52.5112 11.2661C52.5133 11.7725 52.4128 12.2742 52.2157 12.7407L45.5282 29.3001C44.796 31.1472 44.8267 33.2094 45.6136 35.0339C46.4005 36.8584 47.8792 38.2961 49.7251 39.0314L57.5001 42.1032V47.5001C57.5001 47.6032 57.5001 47.7064 57.5001 47.8126L17.4282 31.7845C18.4935 30.2617 19.6819 28.8288 20.9813 27.5001ZM35.9813 67.5001C32.2592 63.9297 29.6223 59.3797 28.3751 54.3751C28.2012 53.7421 27.7854 53.2029 27.2174 52.8739C26.6494 52.5448 25.9748 52.4524 25.3392 52.6165C24.7037 52.7807 24.1582 53.1882 23.8205 53.7511C23.4828 54.314 23.3801 54.9871 23.5344 55.6251C24.6248 59.9305 26.5766 63.9702 29.2719 67.5001H20.1376C15.2069 62.0068 12.486 54.8817 12.5001 47.5001C12.4695 43.5891 13.2939 39.7186 14.9157 36.1595L57.9782 53.3845C58.9157 59.0095 61.2782 63.847 64.8188 67.497L35.9813 67.5001Z" fill="#4F46E5"/>
</svg>
