<svg width="80" height="80" viewBox="0 0 80 80" fill="none" xmlns="http://www.w3.org/2000/svg">
<path d="M40 7.5C33.5721 7.5 27.2886 9.40609 21.944 12.9772C16.5994 16.5484 12.4338 21.6242 9.97393 27.5628C7.51408 33.5014 6.87047 40.0361 8.12449 46.3404C9.37851 52.6448 12.4738 58.4358 17.019 62.981C21.5643 67.5262 27.3552 70.6215 33.6596 71.8755C39.964 73.1295 46.4986 72.4859 52.4372 70.0261C58.3758 67.5662 63.4516 63.4006 67.0228 58.056C70.5939 52.7114 72.5 46.4279 72.5 40C72.4909 31.3833 69.0639 23.122 62.9709 17.0291C56.878 10.9361 48.6168 7.5091 40 7.5ZM40 67.5C34.561 67.5 29.2442 65.8872 24.7218 62.8654C20.1995 59.8437 16.6747 55.5488 14.5933 50.5238C12.5119 45.4988 11.9673 39.9695 13.0284 34.635C14.0895 29.3005 16.7086 24.4005 20.5546 20.5546C24.4005 16.7086 29.3006 14.0895 34.635 13.0284C39.9695 11.9673 45.4988 12.5119 50.5238 14.5933C55.5488 16.6747 59.8437 20.1995 62.8654 24.7218C65.8872 29.2442 67.5 34.561 67.5 40C67.4917 47.2909 64.5918 54.2808 59.4363 59.4363C54.2809 64.5918 47.2909 67.4917 40 67.5ZM25 33.75C25 33.0083 25.2199 32.2833 25.632 31.6666C26.0441 31.0499 26.6297 30.5693 27.315 30.2855C28.0002 30.0016 28.7542 29.9274 29.4816 30.0721C30.209 30.2167 30.8772 30.5739 31.4017 31.0983C31.9261 31.6228 32.2833 32.291 32.428 33.0184C32.5727 33.7458 32.4984 34.4998 32.2146 35.1851C31.9307 35.8703 31.4501 36.456 30.8334 36.868C30.2167 37.2801 29.4917 37.5 28.75 37.5C27.7555 37.5 26.8016 37.1049 26.0984 36.4017C25.3951 35.6984 25 34.7446 25 33.75ZM57.5 33.75C57.5 34.413 57.2366 35.0489 56.7678 35.5178C56.2989 35.9866 55.6631 36.25 55 36.25H47.5C46.837 36.25 46.2011 35.9866 45.7322 35.5178C45.2634 35.0489 45 34.413 45 33.75C45 33.087 45.2634 32.4511 45.7322 31.9822C46.2011 31.5134 46.837 31.25 47.5 31.25H55C55.6631 31.25 56.2989 31.5134 56.7678 31.9822C57.2366 32.4511 57.5 33.087 57.5 33.75ZM54.6625 48.75C51.4469 54.3094 46.1031 57.5 40 57.5C33.8969 57.5 28.5531 54.3125 25.3344 48.75C25.1702 48.4656 25.0637 48.1517 25.0209 47.8261C24.9781 47.5005 24.9998 47.1697 25.0848 46.8526C25.1698 46.5354 25.3165 46.2381 25.5164 45.9776C25.7163 45.7171 25.9656 45.4985 26.25 45.3344C26.5344 45.1702 26.8483 45.0637 27.1739 45.0209C27.4995 44.978 27.8303 44.9998 28.1475 45.0848C28.4646 45.1698 28.7619 45.3165 29.0224 45.5164C29.2829 45.7163 29.5015 45.9656 29.6656 46.25C31.9969 50.2844 35.6656 52.5 40 52.5C44.3344 52.5 48.0031 50.2812 50.3375 46.25C50.4938 45.9512 50.7089 45.6872 50.9699 45.4737C51.2309 45.2602 51.5324 45.1018 51.8562 45.0078C52.18 44.9139 52.5195 44.8864 52.8542 44.9271C53.1889 44.9677 53.5119 45.0757 53.8038 45.2444C54.0957 45.4131 54.3505 45.6392 54.5528 45.9089C54.7551 46.1787 54.9007 46.4865 54.9809 46.814C55.0612 47.1415 55.0743 47.4819 55.0196 47.8146C54.9649 48.1473 54.8434 48.4655 54.6625 48.75Z" fill="#4F46E5"/>
</svg>
